<mxfile host="app.diagrams.net" agent="Mozilla/5.0 (Windows NT 10.0; Win64; x64) AppleWebKit/537.36 (KHTML, like Gecko) Chrome/127.0.0.0 Safari/537.36 Edg/127.0.0.0" version="24.7.6">
  <diagram name="Page-1" id="R800_KFtd1oVN9Q6ebxp">
    <mxGraphModel dx="4160" dy="3685" grid="1" gridSize="10" guides="1" tooltips="1" connect="1" arrows="1" fold="1" page="1" pageScale="1" pageWidth="850" pageHeight="1100" math="0" shadow="0">
      <root>
        <mxCell id="0" />
        <mxCell id="1" parent="0" />
        <mxCell id="grDbTVdjjN0FPIqOOhLa-1" value="Start" style="strokeWidth=2;html=1;shape=mxgraph.flowchart.terminator;whiteSpace=wrap;" parent="1" vertex="1">
          <mxGeometry x="40" y="-2" width="100" height="40" as="geometry" />
        </mxCell>
        <mxCell id="grDbTVdjjN0FPIqOOhLa-2" value="Submit" style="shape=parallelogram;html=1;strokeWidth=2;perimeter=parallelogramPerimeter;whiteSpace=wrap;rounded=1;arcSize=12;size=0.23;" parent="1" vertex="1">
          <mxGeometry x="220" y="-12" width="130" height="60" as="geometry" />
        </mxCell>
        <mxCell id="grDbTVdjjN0FPIqOOhLa-3" value="Register Form" style="rounded=1;whiteSpace=wrap;html=1;absoluteArcSize=1;arcSize=14;strokeWidth=2;" parent="1" vertex="1">
          <mxGeometry x="440" y="-12" width="110" height="60" as="geometry" />
        </mxCell>
        <mxCell id="grDbTVdjjN0FPIqOOhLa-5" value="Login" style="rounded=1;whiteSpace=wrap;html=1;absoluteArcSize=1;arcSize=14;strokeWidth=2;" parent="1" vertex="1">
          <mxGeometry x="840" y="-12" width="110" height="60" as="geometry" />
        </mxCell>
        <mxCell id="grDbTVdjjN0FPIqOOhLa-6" value="View" style="rounded=1;whiteSpace=wrap;html=1;absoluteArcSize=1;arcSize=14;strokeWidth=2;" parent="1" vertex="1">
          <mxGeometry x="1070" y="-12" width="110" height="60" as="geometry" />
        </mxCell>
        <mxCell id="grDbTVdjjN0FPIqOOhLa-7" value="Notifications" style="shape=parallelogram;html=1;strokeWidth=2;perimeter=parallelogramPerimeter;whiteSpace=wrap;rounded=1;arcSize=12;size=0.23;" parent="1" vertex="1">
          <mxGeometry x="1060" y="113" width="130" height="60" as="geometry" />
        </mxCell>
        <mxCell id="grDbTVdjjN0FPIqOOhLa-8" value="Explore&lt;div&gt;Notifications&lt;/div&gt;" style="rounded=1;whiteSpace=wrap;html=1;absoluteArcSize=1;arcSize=14;strokeWidth=2;" parent="1" vertex="1">
          <mxGeometry x="1070" y="253" width="110" height="60" as="geometry" />
        </mxCell>
        <mxCell id="grDbTVdjjN0FPIqOOhLa-10" value="Send&amp;nbsp;&lt;div&gt;Confirmation&lt;/div&gt;" style="rounded=1;whiteSpace=wrap;html=1;absoluteArcSize=1;arcSize=14;strokeWidth=2;" parent="1" vertex="1">
          <mxGeometry x="1070" y="587" width="110" height="60" as="geometry" />
        </mxCell>
        <mxCell id="grDbTVdjjN0FPIqOOhLa-11" value="View" style="rounded=1;whiteSpace=wrap;html=1;absoluteArcSize=1;arcSize=14;strokeWidth=2;" parent="1" vertex="1">
          <mxGeometry x="1070" y="737" width="110" height="60" as="geometry" />
        </mxCell>
        <mxCell id="grDbTVdjjN0FPIqOOhLa-12" value="Send Confirnation" style="rounded=1;whiteSpace=wrap;html=1;absoluteArcSize=1;arcSize=14;strokeWidth=2;" parent="1" vertex="1">
          <mxGeometry x="1070" y="1005" width="110" height="60" as="geometry" />
        </mxCell>
        <mxCell id="1eryQ0Q6g1Y57AA6D4Cp-1" value="Person&#39;s&lt;div&gt;Location&lt;/div&gt;" style="shape=parallelogram;html=1;strokeWidth=2;perimeter=parallelogramPerimeter;whiteSpace=wrap;rounded=1;arcSize=12;size=0.23;" vertex="1" parent="1">
          <mxGeometry x="1060" y="877" width="130" height="60" as="geometry" />
        </mxCell>
        <mxCell id="1eryQ0Q6g1Y57AA6D4Cp-8" value="Call or Message" style="rounded=1;whiteSpace=wrap;html=1;absoluteArcSize=1;arcSize=14;strokeWidth=2;" vertex="1" parent="1">
          <mxGeometry x="680" y="906" width="110" height="60" as="geometry" />
        </mxCell>
        <mxCell id="1eryQ0Q6g1Y57AA6D4Cp-9" value="Start" style="rounded=1;whiteSpace=wrap;html=1;absoluteArcSize=1;arcSize=14;strokeWidth=2;" vertex="1" parent="1">
          <mxGeometry x="230" y="1006" width="110" height="60" as="geometry" />
        </mxCell>
        <mxCell id="1eryQ0Q6g1Y57AA6D4Cp-10" value="Timer" style="shape=parallelogram;html=1;strokeWidth=2;perimeter=parallelogramPerimeter;whiteSpace=wrap;rounded=1;arcSize=12;size=0.23;" vertex="1" parent="1">
          <mxGeometry x="25" y="1006" width="130" height="60" as="geometry" />
        </mxCell>
        <mxCell id="1eryQ0Q6g1Y57AA6D4Cp-12" value="Select" style="rounded=1;whiteSpace=wrap;html=1;absoluteArcSize=1;arcSize=14;strokeWidth=2;" vertex="1" parent="1">
          <mxGeometry x="230" y="748" width="110" height="60" as="geometry" />
        </mxCell>
        <mxCell id="1eryQ0Q6g1Y57AA6D4Cp-13" value="Emergency&lt;div&gt;Type&lt;/div&gt;" style="shape=parallelogram;html=1;strokeWidth=2;perimeter=parallelogramPerimeter;whiteSpace=wrap;rounded=1;arcSize=12;size=0.23;" vertex="1" parent="1">
          <mxGeometry x="450" y="748" width="130" height="60" as="geometry" />
        </mxCell>
        <mxCell id="1eryQ0Q6g1Y57AA6D4Cp-15" value="Enter&lt;div&gt;Finished&lt;/div&gt;" style="rounded=1;whiteSpace=wrap;html=1;absoluteArcSize=1;arcSize=14;strokeWidth=2;" vertex="1" parent="1">
          <mxGeometry x="35" y="569" width="110" height="60" as="geometry" />
        </mxCell>
        <mxCell id="1eryQ0Q6g1Y57AA6D4Cp-16" value="Timer&lt;div&gt;Stoped&lt;/div&gt;" style="shape=parallelogram;html=1;strokeWidth=2;perimeter=parallelogramPerimeter;whiteSpace=wrap;rounded=1;arcSize=12;size=0.23;" vertex="1" parent="1">
          <mxGeometry x="25" y="437" width="130" height="60" as="geometry" />
        </mxCell>
        <mxCell id="1eryQ0Q6g1Y57AA6D4Cp-18" value="Input" style="rounded=1;whiteSpace=wrap;html=1;absoluteArcSize=1;arcSize=14;strokeWidth=2;" vertex="1" parent="1">
          <mxGeometry x="290" y="309" width="110" height="60" as="geometry" />
        </mxCell>
        <mxCell id="1eryQ0Q6g1Y57AA6D4Cp-19" value="Amount" style="shape=parallelogram;html=1;strokeWidth=2;perimeter=parallelogramPerimeter;whiteSpace=wrap;rounded=1;arcSize=12;size=0.23;" vertex="1" parent="1">
          <mxGeometry x="520" y="309" width="130" height="60" as="geometry" />
        </mxCell>
        <mxCell id="1eryQ0Q6g1Y57AA6D4Cp-20" value="End" style="strokeWidth=2;html=1;shape=mxgraph.flowchart.terminator;whiteSpace=wrap;" vertex="1" parent="1">
          <mxGeometry x="820" y="418" width="100" height="40" as="geometry" />
        </mxCell>
        <mxCell id="1eryQ0Q6g1Y57AA6D4Cp-21" value="" style="endArrow=classic;html=1;rounded=0;exitX=1;exitY=0.5;exitDx=0;exitDy=0;exitPerimeter=0;" edge="1" parent="1" source="grDbTVdjjN0FPIqOOhLa-1" target="grDbTVdjjN0FPIqOOhLa-2">
          <mxGeometry width="50" height="50" relative="1" as="geometry">
            <mxPoint x="260" y="268" as="sourcePoint" />
            <mxPoint x="310" y="218" as="targetPoint" />
          </mxGeometry>
        </mxCell>
        <mxCell id="1eryQ0Q6g1Y57AA6D4Cp-22" value="" style="endArrow=classic;html=1;rounded=0;exitX=1;exitY=0.5;exitDx=0;exitDy=0;entryX=0;entryY=0.5;entryDx=0;entryDy=0;" edge="1" parent="1" source="grDbTVdjjN0FPIqOOhLa-2" target="grDbTVdjjN0FPIqOOhLa-3">
          <mxGeometry width="50" height="50" relative="1" as="geometry">
            <mxPoint x="150" y="28" as="sourcePoint" />
            <mxPoint x="245" y="28" as="targetPoint" />
          </mxGeometry>
        </mxCell>
        <mxCell id="1eryQ0Q6g1Y57AA6D4Cp-23" value="" style="endArrow=classic;html=1;rounded=0;" edge="1" parent="1" source="grDbTVdjjN0FPIqOOhLa-3" target="1eryQ0Q6g1Y57AA6D4Cp-24">
          <mxGeometry width="50" height="50" relative="1" as="geometry">
            <mxPoint x="260" y="168" as="sourcePoint" />
            <mxPoint x="650" y="18" as="targetPoint" />
          </mxGeometry>
        </mxCell>
        <mxCell id="1eryQ0Q6g1Y57AA6D4Cp-24" value="Approved" style="rhombus;whiteSpace=wrap;html=1;fontColor=#000000;fillColor=#ffffc0;strokeColor=#ff0000;" vertex="1" parent="1">
          <mxGeometry x="650" y="-32" width="100" height="100" as="geometry" />
        </mxCell>
        <mxCell id="1eryQ0Q6g1Y57AA6D4Cp-25" value="no" style="edgeStyle=orthogonalEdgeStyle;html=1;align=left;verticalAlign=bottom;endArrow=open;endSize=8;strokeColor=#ff0000;rounded=0;" edge="1" source="1eryQ0Q6g1Y57AA6D4Cp-24" parent="1">
          <mxGeometry x="-1" relative="1" as="geometry">
            <mxPoint x="180" y="20" as="targetPoint" />
            <Array as="points">
              <mxPoint x="700" y="130" />
              <mxPoint x="180" y="130" />
            </Array>
          </mxGeometry>
        </mxCell>
        <mxCell id="1eryQ0Q6g1Y57AA6D4Cp-26" value="yes" style="edgeStyle=orthogonalEdgeStyle;html=1;align=left;verticalAlign=top;endArrow=open;endSize=8;strokeColor=#ff0000;rounded=0;entryX=0;entryY=0.5;entryDx=0;entryDy=0;" edge="1" source="1eryQ0Q6g1Y57AA6D4Cp-24" parent="1" target="grDbTVdjjN0FPIqOOhLa-5">
          <mxGeometry x="-1" y="-10" relative="1" as="geometry">
            <mxPoint x="770" y="128" as="targetPoint" />
            <Array as="points">
              <mxPoint x="790" y="18" />
              <mxPoint x="790" y="18" />
            </Array>
            <mxPoint x="10" y="-10" as="offset" />
          </mxGeometry>
        </mxCell>
        <mxCell id="1eryQ0Q6g1Y57AA6D4Cp-28" value="" style="endArrow=classic;html=1;rounded=0;entryX=0;entryY=0.5;entryDx=0;entryDy=0;exitX=1;exitY=0.5;exitDx=0;exitDy=0;" edge="1" parent="1" source="grDbTVdjjN0FPIqOOhLa-5" target="grDbTVdjjN0FPIqOOhLa-6">
          <mxGeometry width="50" height="50" relative="1" as="geometry">
            <mxPoint x="950" y="18" as="sourcePoint" />
            <mxPoint x="660" y="28" as="targetPoint" />
          </mxGeometry>
        </mxCell>
        <mxCell id="1eryQ0Q6g1Y57AA6D4Cp-29" value="" style="endArrow=classic;html=1;rounded=0;entryX=0.5;entryY=0;entryDx=0;entryDy=0;exitX=0.5;exitY=1;exitDx=0;exitDy=0;" edge="1" parent="1" source="grDbTVdjjN0FPIqOOhLa-6" target="grDbTVdjjN0FPIqOOhLa-7">
          <mxGeometry width="50" height="50" relative="1" as="geometry">
            <mxPoint x="960" y="110" as="sourcePoint" />
            <mxPoint x="1080" y="110" as="targetPoint" />
          </mxGeometry>
        </mxCell>
        <mxCell id="1eryQ0Q6g1Y57AA6D4Cp-30" value="" style="endArrow=classic;html=1;rounded=0;exitX=0.5;exitY=1;exitDx=0;exitDy=0;" edge="1" parent="1" source="grDbTVdjjN0FPIqOOhLa-7" target="grDbTVdjjN0FPIqOOhLa-8">
          <mxGeometry width="50" height="50" relative="1" as="geometry">
            <mxPoint x="1135" y="-7" as="sourcePoint" />
            <mxPoint x="1135" y="123" as="targetPoint" />
          </mxGeometry>
        </mxCell>
        <mxCell id="1eryQ0Q6g1Y57AA6D4Cp-31" value="Accept&lt;div&gt;the&lt;/div&gt;&lt;div&gt;Request&lt;/div&gt;" style="rhombus;whiteSpace=wrap;html=1;fontColor=#000000;fillColor=#ffffc0;strokeColor=#ff0000;" vertex="1" parent="1">
          <mxGeometry x="1075" y="393" width="100" height="100" as="geometry" />
        </mxCell>
        <mxCell id="1eryQ0Q6g1Y57AA6D4Cp-32" value="no" style="edgeStyle=orthogonalEdgeStyle;html=1;align=left;verticalAlign=bottom;endArrow=open;endSize=8;strokeColor=#ff0000;rounded=0;" edge="1" parent="1" source="1eryQ0Q6g1Y57AA6D4Cp-31">
          <mxGeometry x="-1" relative="1" as="geometry">
            <mxPoint x="1010" y="20" as="targetPoint" />
            <Array as="points">
              <mxPoint x="1010" y="443" />
            </Array>
          </mxGeometry>
        </mxCell>
        <mxCell id="1eryQ0Q6g1Y57AA6D4Cp-33" value="yes" style="edgeStyle=orthogonalEdgeStyle;html=1;align=left;verticalAlign=top;endArrow=open;endSize=8;strokeColor=#ff0000;rounded=0;entryX=0.5;entryY=0;entryDx=0;entryDy=0;" edge="1" parent="1" source="1eryQ0Q6g1Y57AA6D4Cp-31" target="grDbTVdjjN0FPIqOOhLa-10">
          <mxGeometry x="-1" y="-10" relative="1" as="geometry">
            <mxPoint x="1090" y="560" as="targetPoint" />
            <Array as="points">
              <mxPoint x="1125" y="500" />
              <mxPoint x="1125" y="500" />
            </Array>
            <mxPoint x="10" y="-10" as="offset" />
          </mxGeometry>
        </mxCell>
        <mxCell id="1eryQ0Q6g1Y57AA6D4Cp-34" value="" style="endArrow=classic;html=1;rounded=0;" edge="1" parent="1" source="grDbTVdjjN0FPIqOOhLa-8" target="1eryQ0Q6g1Y57AA6D4Cp-31">
          <mxGeometry width="50" height="50" relative="1" as="geometry">
            <mxPoint x="1135" y="183" as="sourcePoint" />
            <mxPoint x="1135" y="263" as="targetPoint" />
          </mxGeometry>
        </mxCell>
        <mxCell id="1eryQ0Q6g1Y57AA6D4Cp-37" value="" style="endArrow=classic;html=1;rounded=0;exitX=0.5;exitY=1;exitDx=0;exitDy=0;" edge="1" parent="1" source="grDbTVdjjN0FPIqOOhLa-10" target="grDbTVdjjN0FPIqOOhLa-11">
          <mxGeometry width="50" height="50" relative="1" as="geometry">
            <mxPoint x="1145" y="667" as="sourcePoint" />
            <mxPoint x="1145" y="747" as="targetPoint" />
          </mxGeometry>
        </mxCell>
        <mxCell id="1eryQ0Q6g1Y57AA6D4Cp-38" value="" style="endArrow=classic;html=1;rounded=0;exitX=0.5;exitY=1;exitDx=0;exitDy=0;entryX=0.5;entryY=0;entryDx=0;entryDy=0;" edge="1" parent="1" source="grDbTVdjjN0FPIqOOhLa-11" target="1eryQ0Q6g1Y57AA6D4Cp-1">
          <mxGeometry width="50" height="50" relative="1" as="geometry">
            <mxPoint x="1135" y="657" as="sourcePoint" />
            <mxPoint x="1135" y="747" as="targetPoint" />
          </mxGeometry>
        </mxCell>
        <mxCell id="1eryQ0Q6g1Y57AA6D4Cp-39" value="" style="endArrow=classic;html=1;rounded=0;exitX=0.5;exitY=1;exitDx=0;exitDy=0;entryX=0.5;entryY=0;entryDx=0;entryDy=0;" edge="1" parent="1" source="1eryQ0Q6g1Y57AA6D4Cp-1" target="grDbTVdjjN0FPIqOOhLa-12">
          <mxGeometry width="50" height="50" relative="1" as="geometry">
            <mxPoint x="1135" y="807" as="sourcePoint" />
            <mxPoint x="1135" y="887" as="targetPoint" />
            <Array as="points">
              <mxPoint x="1125" y="987" />
            </Array>
          </mxGeometry>
        </mxCell>
        <mxCell id="1eryQ0Q6g1Y57AA6D4Cp-41" value="Call&lt;div&gt;or&lt;/div&gt;&lt;div&gt;Message&lt;/div&gt;" style="rhombus;whiteSpace=wrap;html=1;fontColor=#000000;fillColor=#ffffc0;strokeColor=#ff0000;" vertex="1" parent="1">
          <mxGeometry x="860" y="986" width="100" height="100" as="geometry" />
        </mxCell>
        <mxCell id="1eryQ0Q6g1Y57AA6D4Cp-42" value="no" style="edgeStyle=orthogonalEdgeStyle;html=1;align=left;verticalAlign=bottom;endArrow=open;endSize=8;strokeColor=#ff0000;rounded=0;entryX=1;entryY=0.5;entryDx=0;entryDy=0;" edge="1" parent="1" source="1eryQ0Q6g1Y57AA6D4Cp-41" target="1eryQ0Q6g1Y57AA6D4Cp-45">
          <mxGeometry x="-1" relative="1" as="geometry">
            <mxPoint x="590" y="1036" as="targetPoint" />
            <Array as="points" />
          </mxGeometry>
        </mxCell>
        <mxCell id="1eryQ0Q6g1Y57AA6D4Cp-43" value="yes" style="edgeStyle=orthogonalEdgeStyle;html=1;align=left;verticalAlign=top;endArrow=open;endSize=8;strokeColor=#ff0000;rounded=0;entryX=1;entryY=0.5;entryDx=0;entryDy=0;" edge="1" parent="1" source="1eryQ0Q6g1Y57AA6D4Cp-41" target="1eryQ0Q6g1Y57AA6D4Cp-8">
          <mxGeometry x="-1" y="-10" relative="1" as="geometry">
            <mxPoint x="985" y="1076" as="targetPoint" />
            <Array as="points">
              <mxPoint x="910" y="936" />
            </Array>
            <mxPoint x="10" y="-10" as="offset" />
          </mxGeometry>
        </mxCell>
        <mxCell id="1eryQ0Q6g1Y57AA6D4Cp-44" value="" style="endArrow=classic;html=1;rounded=0;entryX=1;entryY=0.5;entryDx=0;entryDy=0;" edge="1" parent="1" source="grDbTVdjjN0FPIqOOhLa-12" target="1eryQ0Q6g1Y57AA6D4Cp-41">
          <mxGeometry width="50" height="50" relative="1" as="geometry">
            <mxPoint x="1135" y="1008" as="sourcePoint" />
            <mxPoint x="1135" y="1138" as="targetPoint" />
          </mxGeometry>
        </mxCell>
        <mxCell id="1eryQ0Q6g1Y57AA6D4Cp-45" value="Reach&lt;div&gt;Location&lt;/div&gt;" style="rhombus;whiteSpace=wrap;html=1;fontColor=#000000;fillColor=#ffffc0;strokeColor=#ff0000;" vertex="1" parent="1">
          <mxGeometry x="490" y="986" width="100" height="100" as="geometry" />
        </mxCell>
        <mxCell id="1eryQ0Q6g1Y57AA6D4Cp-46" value="no" style="edgeStyle=orthogonalEdgeStyle;html=1;align=left;verticalAlign=bottom;endArrow=open;endSize=8;strokeColor=#ff0000;rounded=0;" edge="1" parent="1" source="1eryQ0Q6g1Y57AA6D4Cp-45">
          <mxGeometry x="-1" relative="1" as="geometry">
            <mxPoint x="1120" y="690" as="targetPoint" />
            <Array as="points">
              <mxPoint x="540" y="890" />
              <mxPoint x="990" y="890" />
              <mxPoint x="990" y="690" />
            </Array>
          </mxGeometry>
        </mxCell>
        <mxCell id="1eryQ0Q6g1Y57AA6D4Cp-47" value="yes" style="edgeStyle=orthogonalEdgeStyle;html=1;align=left;verticalAlign=top;endArrow=open;endSize=8;strokeColor=#ff0000;rounded=0;entryX=1;entryY=0.5;entryDx=0;entryDy=0;" edge="1" parent="1" source="1eryQ0Q6g1Y57AA6D4Cp-45" target="1eryQ0Q6g1Y57AA6D4Cp-9">
          <mxGeometry x="-0.8571" y="-30" relative="1" as="geometry">
            <mxPoint x="540" y="866" as="targetPoint" />
            <Array as="points">
              <mxPoint x="450" y="1036" />
              <mxPoint x="450" y="1036" />
            </Array>
            <mxPoint as="offset" />
          </mxGeometry>
        </mxCell>
        <mxCell id="1eryQ0Q6g1Y57AA6D4Cp-49" value="" style="endArrow=classic;html=1;rounded=0;exitX=0.5;exitY=1;exitDx=0;exitDy=0;" edge="1" parent="1" source="1eryQ0Q6g1Y57AA6D4Cp-8">
          <mxGeometry width="50" height="50" relative="1" as="geometry">
            <mxPoint x="1135" y="886" as="sourcePoint" />
            <mxPoint x="735" y="1036" as="targetPoint" />
            <Array as="points" />
          </mxGeometry>
        </mxCell>
        <mxCell id="1eryQ0Q6g1Y57AA6D4Cp-50" value="" style="endArrow=classic;html=1;rounded=0;exitX=0;exitY=0.5;exitDx=0;exitDy=0;" edge="1" parent="1" source="1eryQ0Q6g1Y57AA6D4Cp-9" target="1eryQ0Q6g1Y57AA6D4Cp-10">
          <mxGeometry width="50" height="50" relative="1" as="geometry">
            <mxPoint x="745" y="976" as="sourcePoint" />
            <mxPoint x="745" y="1046" as="targetPoint" />
            <Array as="points" />
          </mxGeometry>
        </mxCell>
        <mxCell id="1eryQ0Q6g1Y57AA6D4Cp-51" value="Auto" style="shape=umlFrame;whiteSpace=wrap;html=1;pointerEvents=0;" vertex="1" parent="1">
          <mxGeometry x="10" y="926" width="380" height="200" as="geometry" />
        </mxCell>
        <mxCell id="1eryQ0Q6g1Y57AA6D4Cp-52" value="" style="endArrow=classic;html=1;rounded=0;entryX=0.5;entryY=1;entryDx=0;entryDy=0;" edge="1" parent="1" source="1eryQ0Q6g1Y57AA6D4Cp-10" target="1eryQ0Q6g1Y57AA6D4Cp-53">
          <mxGeometry width="50" height="50" relative="1" as="geometry">
            <mxPoint x="240" y="1230" as="sourcePoint" />
            <mxPoint x="90" y="1000" as="targetPoint" />
            <Array as="points" />
          </mxGeometry>
        </mxCell>
        <mxCell id="1eryQ0Q6g1Y57AA6D4Cp-53" value="Emergency" style="rhombus;whiteSpace=wrap;html=1;fontColor=#000000;fillColor=#ffffc0;strokeColor=#ff0000;" vertex="1" parent="1">
          <mxGeometry x="40" y="728" width="100" height="100" as="geometry" />
        </mxCell>
        <mxCell id="1eryQ0Q6g1Y57AA6D4Cp-54" value="no" style="edgeStyle=orthogonalEdgeStyle;html=1;align=left;verticalAlign=bottom;endArrow=open;endSize=8;strokeColor=#ff0000;rounded=0;entryX=0.5;entryY=1;entryDx=0;entryDy=0;" edge="1" parent="1" source="1eryQ0Q6g1Y57AA6D4Cp-53" target="1eryQ0Q6g1Y57AA6D4Cp-15">
          <mxGeometry x="-1" relative="1" as="geometry">
            <mxPoint x="150" y="780" as="targetPoint" />
            <Array as="points" />
          </mxGeometry>
        </mxCell>
        <mxCell id="1eryQ0Q6g1Y57AA6D4Cp-55" value="yes" style="edgeStyle=orthogonalEdgeStyle;html=1;align=left;verticalAlign=top;endArrow=open;endSize=8;strokeColor=#ff0000;rounded=0;entryX=0;entryY=0.5;entryDx=0;entryDy=0;" edge="1" parent="1" source="1eryQ0Q6g1Y57AA6D4Cp-53" target="1eryQ0Q6g1Y57AA6D4Cp-12">
          <mxGeometry x="-1" y="20" relative="1" as="geometry">
            <mxPoint x="-210" y="858" as="targetPoint" />
            <Array as="points">
              <mxPoint x="180" y="778" />
              <mxPoint x="180" y="778" />
            </Array>
            <mxPoint as="offset" />
          </mxGeometry>
        </mxCell>
        <mxCell id="1eryQ0Q6g1Y57AA6D4Cp-56" value="" style="endArrow=classic;html=1;rounded=0;entryX=0;entryY=0.5;entryDx=0;entryDy=0;" edge="1" parent="1" source="1eryQ0Q6g1Y57AA6D4Cp-12" target="1eryQ0Q6g1Y57AA6D4Cp-13">
          <mxGeometry width="50" height="50" relative="1" as="geometry">
            <mxPoint x="100" y="1048" as="sourcePoint" />
            <mxPoint x="100" y="838" as="targetPoint" />
            <Array as="points" />
          </mxGeometry>
        </mxCell>
        <mxCell id="1eryQ0Q6g1Y57AA6D4Cp-57" value="Cencel" style="rhombus;whiteSpace=wrap;html=1;fontColor=#000000;fillColor=#ffffc0;strokeColor=#ff0000;" vertex="1" parent="1">
          <mxGeometry x="660" y="728" width="100" height="100" as="geometry" />
        </mxCell>
        <mxCell id="1eryQ0Q6g1Y57AA6D4Cp-58" value="no" style="edgeStyle=orthogonalEdgeStyle;html=1;align=left;verticalAlign=bottom;endArrow=open;endSize=8;strokeColor=#ff0000;rounded=0;" edge="1" parent="1" source="1eryQ0Q6g1Y57AA6D4Cp-57">
          <mxGeometry x="-1" relative="1" as="geometry">
            <mxPoint x="90" y="668" as="targetPoint" />
            <Array as="points">
              <mxPoint x="710" y="668" />
              <mxPoint x="90" y="668" />
            </Array>
          </mxGeometry>
        </mxCell>
        <mxCell id="1eryQ0Q6g1Y57AA6D4Cp-59" value="yes" style="edgeStyle=orthogonalEdgeStyle;html=1;align=left;verticalAlign=top;endArrow=open;endSize=8;strokeColor=#ff0000;rounded=0;entryX=0.5;entryY=1;entryDx=0;entryDy=0;entryPerimeter=0;" edge="1" parent="1" source="1eryQ0Q6g1Y57AA6D4Cp-57" target="1eryQ0Q6g1Y57AA6D4Cp-20">
          <mxGeometry x="-1" y="20" relative="1" as="geometry">
            <mxPoint x="940" y="930" as="targetPoint" />
            <Array as="points">
              <mxPoint x="870" y="778" />
            </Array>
            <mxPoint as="offset" />
          </mxGeometry>
        </mxCell>
        <mxCell id="1eryQ0Q6g1Y57AA6D4Cp-60" value="" style="endArrow=classic;html=1;rounded=0;entryX=0;entryY=0.5;entryDx=0;entryDy=0;" edge="1" parent="1" source="1eryQ0Q6g1Y57AA6D4Cp-13" target="1eryQ0Q6g1Y57AA6D4Cp-57">
          <mxGeometry width="50" height="50" relative="1" as="geometry">
            <mxPoint x="350" y="788" as="sourcePoint" />
            <mxPoint x="475" y="788" as="targetPoint" />
            <Array as="points" />
          </mxGeometry>
        </mxCell>
        <mxCell id="1eryQ0Q6g1Y57AA6D4Cp-61" value="" style="endArrow=classic;html=1;rounded=0;entryX=0.5;entryY=1;entryDx=0;entryDy=0;exitX=0.5;exitY=0;exitDx=0;exitDy=0;" edge="1" parent="1" source="1eryQ0Q6g1Y57AA6D4Cp-15" target="1eryQ0Q6g1Y57AA6D4Cp-16">
          <mxGeometry width="50" height="50" relative="1" as="geometry">
            <mxPoint x="360" y="859" as="sourcePoint" />
            <mxPoint x="485" y="859" as="targetPoint" />
            <Array as="points" />
          </mxGeometry>
        </mxCell>
        <mxCell id="1eryQ0Q6g1Y57AA6D4Cp-62" value="Amount&lt;div&gt;Per&lt;/div&gt;&lt;div&gt;Time&lt;/div&gt;" style="rhombus;whiteSpace=wrap;html=1;fontColor=#000000;fillColor=#ffffc0;strokeColor=#ff0000;" vertex="1" parent="1">
          <mxGeometry x="40" y="289" width="100" height="100" as="geometry" />
        </mxCell>
        <mxCell id="1eryQ0Q6g1Y57AA6D4Cp-63" value="no" style="edgeStyle=orthogonalEdgeStyle;html=1;align=left;verticalAlign=bottom;endArrow=open;endSize=8;strokeColor=#ff0000;rounded=0;entryX=0.5;entryY=0;entryDx=0;entryDy=0;" edge="1" parent="1" source="1eryQ0Q6g1Y57AA6D4Cp-62" target="1eryQ0Q6g1Y57AA6D4Cp-19">
          <mxGeometry x="-1" relative="1" as="geometry">
            <mxPoint x="150" y="199" as="targetPoint" />
            <Array as="points">
              <mxPoint x="90" y="233" />
              <mxPoint x="585" y="233" />
            </Array>
          </mxGeometry>
        </mxCell>
        <mxCell id="1eryQ0Q6g1Y57AA6D4Cp-64" value="yes" style="edgeStyle=orthogonalEdgeStyle;html=1;align=left;verticalAlign=top;endArrow=open;endSize=8;strokeColor=#ff0000;rounded=0;entryX=0;entryY=0.5;entryDx=0;entryDy=0;" edge="1" parent="1" source="1eryQ0Q6g1Y57AA6D4Cp-62" target="1eryQ0Q6g1Y57AA6D4Cp-18">
          <mxGeometry x="-1" y="20" relative="1" as="geometry">
            <mxPoint x="330" y="389" as="targetPoint" />
            <Array as="points">
              <mxPoint x="290" y="339" />
            </Array>
            <mxPoint as="offset" />
          </mxGeometry>
        </mxCell>
        <mxCell id="1eryQ0Q6g1Y57AA6D4Cp-65" value="" style="endArrow=classic;html=1;rounded=0;entryX=0.5;entryY=1;entryDx=0;entryDy=0;exitX=0.5;exitY=0;exitDx=0;exitDy=0;" edge="1" parent="1" source="1eryQ0Q6g1Y57AA6D4Cp-16" target="1eryQ0Q6g1Y57AA6D4Cp-62">
          <mxGeometry width="50" height="50" relative="1" as="geometry">
            <mxPoint x="100" y="583" as="sourcePoint" />
            <mxPoint x="100" y="473" as="targetPoint" />
            <Array as="points" />
          </mxGeometry>
        </mxCell>
        <mxCell id="1eryQ0Q6g1Y57AA6D4Cp-66" value="" style="endArrow=classic;html=1;rounded=0;entryX=0;entryY=0.5;entryDx=0;entryDy=0;exitX=1;exitY=0.5;exitDx=0;exitDy=0;" edge="1" parent="1" source="1eryQ0Q6g1Y57AA6D4Cp-18" target="1eryQ0Q6g1Y57AA6D4Cp-19">
          <mxGeometry width="50" height="50" relative="1" as="geometry">
            <mxPoint x="100" y="499" as="sourcePoint" />
            <mxPoint x="100" y="399" as="targetPoint" />
            <Array as="points" />
          </mxGeometry>
        </mxCell>
        <mxCell id="1eryQ0Q6g1Y57AA6D4Cp-67" value="" style="endArrow=classic;html=1;rounded=0;entryX=0.5;entryY=0;entryDx=0;entryDy=0;entryPerimeter=0;exitX=1;exitY=0.5;exitDx=0;exitDy=0;" edge="1" parent="1" source="1eryQ0Q6g1Y57AA6D4Cp-19" target="1eryQ0Q6g1Y57AA6D4Cp-20">
          <mxGeometry width="50" height="50" relative="1" as="geometry">
            <mxPoint x="870" y="320" as="sourcePoint" />
            <mxPoint x="545" y="350" as="targetPoint" />
            <Array as="points">
              <mxPoint x="870" y="340" />
            </Array>
          </mxGeometry>
        </mxCell>
        <mxCell id="1eryQ0Q6g1Y57AA6D4Cp-69" value="Collect the Reqiured&lt;div&gt;Docs&lt;/div&gt;" style="shape=document;whiteSpace=wrap;html=1;boundedLbl=1;fillColor=#f8cecc;strokeColor=#b85450;" vertex="1" parent="1">
          <mxGeometry x="390" y="90" width="120" height="80" as="geometry" />
        </mxCell>
        <mxCell id="1eryQ0Q6g1Y57AA6D4Cp-70" value="&lt;ul&gt;&lt;li&gt;&lt;font style=&quot;font-size: 11px;&quot;&gt;Police&lt;/font&gt;&lt;/li&gt;&lt;li&gt;&lt;font style=&quot;font-size: 11px;&quot;&gt;Fire&lt;/font&gt;&lt;/li&gt;&lt;li&gt;&lt;font style=&quot;font-size: 11px;&quot;&gt;Ambulance&lt;/font&gt;&lt;/li&gt;&lt;li&gt;&lt;font style=&quot;font-size: 11px;&quot;&gt;Guardian&lt;/font&gt;&lt;/li&gt;&lt;/ul&gt;" style="shape=card;whiteSpace=wrap;html=1;align=left;fillColor=#f8cecc;strokeColor=#b85450;" vertex="1" parent="1">
          <mxGeometry x="400" y="842" width="130" height="64" as="geometry" />
        </mxCell>
        <mxCell id="1eryQ0Q6g1Y57AA6D4Cp-71" value="" style="endArrow=none;dashed=1;html=1;dashPattern=1 3;strokeWidth=2;rounded=0;entryX=0.5;entryY=1;entryDx=0;entryDy=0;exitX=0.871;exitY=-0.025;exitDx=0;exitDy=0;exitPerimeter=0;" edge="1" parent="1" source="1eryQ0Q6g1Y57AA6D4Cp-70" target="1eryQ0Q6g1Y57AA6D4Cp-13">
          <mxGeometry width="50" height="50" relative="1" as="geometry">
            <mxPoint x="470" y="920" as="sourcePoint" />
            <mxPoint x="520" y="870" as="targetPoint" />
          </mxGeometry>
        </mxCell>
      </root>
    </mxGraphModel>
  </diagram>
</mxfile>
